<svg width="60" height="75" viewBox="0 0 60 75" fill="none" xmlns="http://www.w3.org/2000/svg">
<g clip-path="url(#clip0_175_204)">
<path d="M5.16916 64.5767H7.25048V72.1279C7.25048 73.3694 6.38042 74.1177 5.10092 74.1177H2.49075C1.19419 74.1177 0.341187 73.3694 0.341187 72.1279V64.5767H2.45663V71.8388C2.45663 72.0088 2.59311 72.1619 2.78077 72.1619H4.86208C5.03268 72.1619 5.18622 72.0258 5.18622 71.8388V64.5767H5.16916ZM8.10348 72.0088H10.1848V74.1177H8.10348V72.0088ZM11.0549 66.3284C11.0549 65.325 11.7884 64.5767 12.9315 64.5767H15.9511C17.0941 64.5767 17.8277 65.325 17.8277 66.3284V67.723H15.7975V66.7366C15.7975 66.5665 15.6611 66.4134 15.4734 66.4134H13.4091C13.2215 66.4134 13.085 66.5495 13.085 66.7366V67.621C13.085 67.757 13.1532 67.8931 13.375 67.9611L16.497 68.8795C17.5547 69.1856 17.8277 69.6618 17.8277 70.7673V72.366C17.8277 73.3524 17.0941 74.1177 15.9681 74.1177H12.8973C11.7714 74.1177 11.0378 73.3524 11.0378 72.366V70.8183H13.0509V71.9578C13.0509 72.1279 13.1874 72.2809 13.375 72.2809H15.4563C15.644 72.2809 15.7805 72.1449 15.7805 71.9578V70.9714C15.7805 70.8353 15.6781 70.6993 15.4905 70.6482L12.3685 69.7299C11.3108 69.4237 11.0378 68.9475 11.0378 67.8421L11.0549 66.3284ZM18.6807 72.0088H20.762V74.1177H18.6807V72.0088ZM29.4797 72.519H26.1188L25.6753 74.1177H23.5087L26.3747 64.5767H29.3944L32.141 74.1177H29.9403L29.4797 72.519ZM28.9679 70.6823L27.8078 66.4475L26.6306 70.6823H28.9679ZM39.255 70.172L38.7432 70.5972L40.4322 74.1177H38.112L36.6107 70.8523H35.2289V74.1177H33.1134V64.5767H37.9585C39.1527 64.5767 39.9886 65.308 39.9886 66.3964V68.2672C40.0057 69.2196 39.9033 69.6278 39.255 70.172ZM37.9073 68.7094V66.8216C37.9073 66.6515 37.7708 66.4985 37.5831 66.4985H35.2459V69.0156H37.5831C37.7708 69.0156 37.9073 68.8795 37.9073 68.7094ZM47.5632 64.5767H50.2758V74.1177H48.2627V68.1652L46.1984 74.1177H45.6013L43.5371 68.1652V74.1177H41.5922V64.5767H44.3048L45.9425 69.7469L47.5632 64.5767ZM59.6588 64.5767L56.4344 70.4612V74.1007H54.319V70.4782L51.18 64.5767H53.6366L55.462 68.2672L57.2704 64.5767H59.6588Z" fill="white"/>
<path d="M58.8058 21.242H36.7643L29.9573 0.340088L23.1504 21.242H1.10889L18.9366 34.1505L12.1296 55.0525L29.9573 42.144L47.785 55.0525L40.9781 34.1505L58.8058 21.242ZM29.9573 35.7152L22.0244 41.4637L25.0611 32.1607L17.1282 26.4122H26.9377L29.9744 17.1093L33.0111 26.4122H42.8206L34.8877 32.1607L37.9244 41.4637L29.9573 35.7152Z" fill="#FFCC01"/>
</g>
<defs>
<clipPath id="clip0_175_204">
<rect width="60" height="75" fill="white"/>
</clipPath>
</defs>
</svg>
