<svg width="121" height="120" viewBox="0 0 121 120" fill="none" xmlns="http://www.w3.org/2000/svg">
<path d="M65.3278 20.4585L64.5468 21.2395L65.4425 21.7555L65.3278 20.4585Z" fill="#DEDEDE"/>
<path d="M60.0036 18.6313H60.0968V18.1297L64.7546 13.479L64.6184 11.9957L60.0968 16.5245V15.808L64.5683 11.3436L64.3963 9.88893L60.0968 14.2315V13.5149L64.3963 9.21533L64.2673 7.732L60.0968 11.9312V11.2146L64.1598 7.16589L64.0308 5.73271L60.0968 9.63096V9.00036L64.0165 5.08062L63.8445 3.58295L60.0968 7.38803V6.67144L63.8302 2.93801L63.6797 1.43318L60.0968 5.01612L60.0394 4.38552L62.3254 2.07811C63.1136 1.86313 63.6295 1.54067 63.6295 1.18237C63.6295 0.530276 62.0029 0 60.0036 0C58.0043 0 56.3777 0.530276 56.3777 1.18237L54.5647 21.7556L58.2981 19.6059L60.0036 18.6313Z" fill="#DEDEDE"/>
<path d="M62.6909 20.1646L65.0914 17.764L64.9625 16.252L61.6447 19.5555L61.7091 19.5913L62.6909 20.1646Z" fill="#DEDEDE"/>
<path d="M65.2705 19.8208L65.1486 18.3661L63.1135 20.4084L64.1096 20.9816L65.2705 19.8208Z" fill="#DEDEDE"/>
<path d="M64.8979 15.6003L64.7689 14.1169L60.1827 18.7103L61.2003 19.2979L64.8979 15.6003Z" fill="#DEDEDE"/>
<path d="M82.5475 31.2289L82.2751 31.5012L82.5904 31.6804L82.5475 31.2289Z" fill="#DEDEDE"/>
<path d="M82.5045 30.7631L82.4113 29.6524L81.1931 30.8777L81.9527 31.3149L82.5045 30.7631Z" fill="#DEDEDE"/>
<path d="M82.2322 27.6028L82.1318 26.5208L79.0433 29.6308L79.7814 30.0536L82.2322 27.6028Z" fill="#DEDEDE"/>
<path d="M82.3683 29.1793L82.268 28.0757L80.1039 30.247L80.8635 30.6841L82.3683 29.1793Z" fill="#DEDEDE"/>
<path d="M82.096 26.0696L81.9956 24.9446L78.341 28.5777V28.0617L81.924 24.4788L81.8237 23.3753L78.3124 26.8937V26.3778L81.7878 22.9023L81.6875 21.7988L78.3124 25.1739V24.6579L81.6445 21.3258L81.5944 20.1936L78.341 23.4326V22.931L81.537 19.735L81.4367 18.6314L78.341 21.7128V21.204L81.4009 18.1442L81.3006 17.0549L78.341 20.0001V19.5272L81.2647 16.6035L81.1644 15.4784L78.341 18.3448V17.836L81.1214 15.0485L81.0211 13.9091L78.341 16.5892L78.298 16.1162L80.0322 14.3892C80.6198 14.2244 80.9996 13.9879 80.9996 13.7156C80.9996 13.2284 79.7886 12.8342 78.298 12.8342C76.8075 12.8342 75.5965 13.2284 75.5965 13.7156L74.4285 26.9582L78.728 29.4448L82.096 26.0696Z" fill="#DEDEDE"/>
<path d="M45.507 26.0694L45.4067 24.9444L41.7521 28.5775V28.0615L45.335 24.4786L45.2419 23.3751L41.7521 26.8648V26.3489L45.2275 22.8734L45.1272 21.7699L41.7521 25.145V24.6291L45.0914 21.2969L44.991 20.1934L41.7521 23.4324V22.9308L44.948 19.7348L44.8549 18.6312L41.7521 21.7126V21.2038L44.8119 18.144L44.7187 17.0547L41.7521 19.9999V19.527L44.6757 16.6033L44.5754 15.4782L41.7521 18.3446V17.8358L44.5396 15.0483L44.4393 13.9089L41.7521 16.5675L41.7091 16.0945L43.4432 14.3675C44.0308 14.2027 44.4106 13.9662 44.4106 13.6939C44.4106 13.2067 43.2067 12.8125 41.7091 12.8125C40.2114 12.8125 39.0075 13.2067 39.0075 13.6939L37.431 31.6803L43.2927 28.2837L45.507 26.0694Z" fill="#DEDEDE"/>
<path d="M45.55 26.5208L44.4751 27.6028L45.5858 26.9579L45.55 26.5208Z" fill="#DEDEDE"/>
<path d="M30 39.9142V66.4279L60.0036 83.7981V22.5369L30 39.9142Z" fill="#A1A1A3"/>
<path d="M89.8781 39.8353L60.0035 22.5369V83.7909L90 66.4208L89.8781 39.8353Z" fill="#F4F3F2"/>
<path d="M66.6177 63.6119V60.1579L78.6922 53.164L66.6177 46.1773V42.7161L84.6686 53.164L66.6177 63.6119Z" fill="#221F20"/>
<path d="M53.3465 46.1773L41.272 53.164L53.3465 60.1579V63.6119L35.2957 53.164L53.3465 42.7161V46.1773Z" fill="#221F20"/>
<path d="M13.1 96.9293V99.8293C13.1026 100.169 13.0382 100.506 12.9103 100.82C12.7825 101.135 12.5937 101.421 12.355 101.663C12.1162 101.905 11.8321 102.097 11.5189 102.228C11.2057 102.36 10.8697 102.428 10.53 102.429H2.59C2.25035 102.431 1.91378 102.365 1.5996 102.236C1.28543 102.107 0.999829 101.917 0.759193 101.677C0.518558 101.437 0.327624 101.153 0.197342 100.839C0.0670599 100.525 -2.55127e-06 100.189 0 99.8493V98.6593H2.93V99.2593C2.93 99.3283 2.95739 99.3944 3.00615 99.4431C3.05491 99.4919 3.12104 99.5193 3.18999 99.5193H9.91C9.97895 99.5193 10.0451 99.4919 10.0938 99.4431C10.1426 99.3944 10.17 99.3283 10.17 99.2593V97.9293C10.17 97.8603 10.1426 97.7942 10.0938 97.7454C10.0451 97.6967 9.97895 97.6693 9.91 97.6693H2.04C1.50957 97.6693 1.00086 97.4586 0.625786 97.0835C0.250713 96.7084 0.0400009 96.1997 0.0400009 95.6693V92.6293C0.0386844 92.2883 0.104706 91.9505 0.234276 91.6351C0.363846 91.3197 0.554409 91.033 0.795044 90.7914C1.03568 90.5499 1.32165 90.3582 1.63654 90.2274C1.95142 90.0966 2.28903 90.0293 2.63 90.0293H10.57C10.9101 90.0306 11.2467 90.0989 11.5604 90.2303C11.8741 90.3616 12.1589 90.5535 12.3985 90.795C12.6381 91.0364 12.8277 91.3226 12.9567 91.6374C13.0856 91.9521 13.1513 92.2892 13.15 92.6293V93.8293H10.22V93.2293C10.22 93.1603 10.1926 93.0942 10.1438 93.0455C10.0951 92.9967 10.029 92.9693 9.96 92.9693H3.18999C3.12104 92.9693 3.05491 92.9967 3.00615 93.0455C2.95739 93.0942 2.93 93.1603 2.93 93.2293V94.5993C2.92859 94.6338 2.93435 94.6683 2.94691 94.7004C2.95948 94.7326 2.97858 94.7619 3.00301 94.7863C3.02744 94.8107 3.05667 94.8298 3.08885 94.8424C3.12104 94.8549 3.15547 94.8607 3.18999 94.8593H11.06C11.332 94.8537 11.6023 94.9036 11.8543 95.0061C12.1063 95.1085 12.3348 95.2613 12.5257 95.455C12.7167 95.6488 12.8661 95.8795 12.9649 96.133C13.0636 96.3864 13.1096 96.6574 13.1 96.9293Z" fill="#FFCC01"/>
<path d="M29.26 93V99.48C29.26 100.276 28.9439 101.039 28.3813 101.601C27.8187 102.164 27.0556 102.48 26.26 102.48H18.74C17.9443 102.48 17.1813 102.164 16.6187 101.601C16.0561 101.039 15.74 100.276 15.74 99.48V93C15.74 92.2044 16.0561 91.4413 16.6187 90.8787C17.1813 90.3161 17.9443 90 18.74 90H26.26C27.0556 90 27.8187 90.3161 28.3813 90.8787C28.9439 91.4413 29.26 92.2044 29.26 93ZM26.33 93.58C26.3354 93.4983 26.3243 93.4163 26.2973 93.3389C26.2703 93.2615 26.2281 93.1904 26.173 93.1297C26.1179 93.0691 26.0512 93.0201 25.9768 92.9858C25.9024 92.9515 25.8219 92.9325 25.74 92.93H19.38C19.2182 92.93 19.0631 92.9943 18.9487 93.1087C18.8343 93.2231 18.77 93.3782 18.77 93.54V98.93C18.7687 99.0109 18.7835 99.0913 18.8135 99.1665C18.8436 99.2417 18.8883 99.3101 18.9451 99.3678C19.0019 99.4255 19.0696 99.4713 19.1442 99.5026C19.2189 99.5339 19.299 99.55 19.38 99.55H25.74C25.9044 99.55 26.0621 99.4847 26.1784 99.3684C26.2947 99.2521 26.36 99.0944 26.36 98.93L26.33 93.58Z" fill="#FFCC01"/>
<path d="M31.95 90.0293H43.51V92.8093H35.09V94.9293H42.09V97.7293H35.09V102.419H31.95V90.0293Z" fill="#FFCC01"/>
<path d="M58.13 90.0293V92.9293H53.47V102.409H50.36V92.9293H45.74V90.0293H58.13Z" fill="#FFCC01"/>
<path d="M74.58 90.0293H77.58L74.04 102.449H70.25L68.74 96.2293L67.23 102.439H63.45L59.88 90.0293H62.88L65.35 98.2293L67.35 90.0293H70.02L72.02 98.2293L74.58 90.0293Z" fill="#FFCC01"/>
<path d="M87.35 100.549H81.19L80.33 102.449H77.22L82.46 90.0293H86.08L91.31 102.449H88.21L87.35 100.549ZM86.12 97.8093L84.27 93.0893L82.41 97.8093H86.12Z" fill="#FFCC01"/>
<path d="M106.24 92.6193V96.4193C106.236 97.0578 105.998 97.6727 105.57 98.1466C105.142 98.6206 104.555 98.9205 103.92 98.9893L106.24 102.449H102.79L100.48 98.9993H96.4201V102.449H93.3201V90.0293H103.65C104.337 90.0293 104.996 90.3022 105.481 90.7879C105.967 91.2736 106.24 91.9324 106.24 92.6193ZM103.3 93.2193C103.3 93.1856 103.293 93.1523 103.28 93.1213C103.267 93.0903 103.248 93.0622 103.223 93.0389C103.199 93.0155 103.17 92.9973 103.139 92.9854C103.107 92.9734 103.074 92.968 103.04 92.9693H96.4201V96.0693H103.04C103.109 96.0693 103.175 96.0419 103.224 95.9931C103.273 95.9444 103.3 95.8783 103.3 95.8093V93.2193Z" fill="#FFCC01"/>
<path d="M108.94 90.0293H120.32V92.7893H112.07V94.7893H118.94V97.7393H112.07V99.7393H120.32V102.499H108.94V90.0293Z" fill="#FFCC01"/>
<path d="M10 106.739H21.56V109.509H13.14V111.669H20.14V114.459H13.14V119.159H10V106.739Z" fill="#FFCC01"/>
<path d="M31.5599 117.249H25.3899L24.5399 119.159H21.4299L26.6599 106.739H30.2899L35.5199 119.159H32.4199L31.5599 117.249ZM30.3299 114.519L28.4799 109.789L26.6199 114.519H30.3299Z" fill="#FFCC01"/>
<path d="M50.4701 109.329V111.049H47.5301V109.929C47.5301 109.86 47.5027 109.794 47.4539 109.745C47.4052 109.697 47.339 109.669 47.2701 109.669H40.7501C40.7159 109.669 40.6821 109.676 40.6506 109.689C40.619 109.702 40.5904 109.721 40.5662 109.745C40.5421 109.77 40.5229 109.798 40.5099 109.83C40.4968 109.861 40.4901 109.895 40.4901 109.929V115.929C40.4901 115.963 40.4968 115.997 40.5099 116.029C40.5229 116.06 40.5421 116.089 40.5662 116.113C40.5904 116.137 40.619 116.156 40.6506 116.169C40.6821 116.183 40.7159 116.189 40.7501 116.189H47.3001C47.369 116.189 47.4352 116.162 47.4839 116.113C47.5327 116.064 47.5601 115.998 47.5601 115.929V114.859H50.5001V116.569C50.5001 117.256 50.2272 117.915 49.7415 118.401C49.2558 118.886 48.597 119.159 47.9101 119.159H40.1401C39.8004 119.159 39.4641 119.092 39.1504 118.962C38.8368 118.832 38.5519 118.641 38.3122 118.4C38.0725 118.159 37.8827 117.874 37.7536 117.56C37.6245 117.245 37.5588 116.909 37.5601 116.569V109.329C37.5588 108.99 37.6245 108.653 37.7536 108.339C37.8827 108.025 38.0725 107.739 38.3122 107.498C38.5519 107.258 38.8368 107.067 39.1504 106.937C39.4641 106.806 39.8004 106.739 40.1401 106.739H47.9101C48.5918 106.747 49.2429 107.024 49.7221 107.508C50.2014 107.993 50.4701 108.648 50.4701 109.329Z" fill="#FFCC01"/>
<path d="M65.0999 106.739V109.669H60.4399V119.159H57.3399V109.669H52.6799V106.739H65.0999Z" fill="#FFCC01"/>
<path d="M80.75 109.71V116.19C80.75 116.986 80.4339 117.749 79.8713 118.311C79.3087 118.874 78.5456 119.19 77.75 119.19H70.23C69.4343 119.19 68.6713 118.874 68.1087 118.311C67.546 117.749 67.23 116.986 67.23 116.19V109.71C67.23 108.914 67.546 108.151 68.1087 107.589C68.6713 107.026 69.4343 106.71 70.23 106.71H77.75C78.5456 106.71 79.3087 107.026 79.8713 107.589C80.4339 108.151 80.75 108.914 80.75 109.71ZM77.81 110.29C77.8113 110.209 77.7965 110.129 77.7664 110.053C77.7364 109.978 77.6917 109.91 77.6349 109.852C77.5781 109.794 77.5104 109.749 77.4358 109.717C77.3611 109.686 77.2809 109.67 77.2 109.67H70.84C70.6755 109.67 70.5179 109.735 70.4016 109.852C70.2853 109.968 70.22 110.126 70.22 110.29V115.61C70.22 115.691 70.236 115.772 70.2672 115.847C70.2983 115.922 70.344 115.991 70.4016 116.048C70.4592 116.106 70.5275 116.152 70.6027 116.183C70.6779 116.214 70.7586 116.23 70.84 116.23H77.2C77.2809 116.23 77.3611 116.214 77.4358 116.183C77.5104 116.151 77.5781 116.105 77.6349 116.048C77.6917 115.99 77.7364 115.922 77.7664 115.846C77.7965 115.771 77.8113 115.691 77.81 115.61V110.29Z" fill="#FFCC01"/>
<path d="M96.3399 109.329V113.119C96.3387 113.76 96.1013 114.377 95.6732 114.853C95.2451 115.329 94.6564 115.63 94.0199 115.699L96.3399 119.159H92.8899L90.5799 115.709H86.5199V119.159H83.4199V106.739H93.7499C94.4368 106.739 95.0956 107.012 95.5813 107.498C96.067 107.984 96.3399 108.642 96.3399 109.329ZM93.3999 109.929C93.3999 109.86 93.3725 109.794 93.3238 109.745C93.275 109.697 93.2089 109.669 93.1399 109.669H86.5199V112.779H93.1399C93.2089 112.779 93.275 112.752 93.3238 112.703C93.3725 112.654 93.3999 112.588 93.3999 112.519V109.929Z" fill="#FFCC01"/>
<path d="M107.23 106.739H110.63L105.94 114.479V119.159H102.83V114.479L98.1499 106.739H101.54L104.39 111.559L107.23 106.739Z" fill="#FFCC01"/>
</svg>
